<svg viewBox="0 0 800 400" xmlns="http://www.w3.org/2000/svg">
  <!-- Background -->
  <rect width="800" height="400" fill="white"/>
  
  <!-- Participants -->
  <g font-family="Arial" font-size="14">
    <!-- User -->
    <rect x="50" y="20" width="100" height="40" fill="#f0f0f0" stroke="black"/>
    <text x="100" y="45" text-anchor="middle">User in Slack</text>
    <line x1="100" y1="60" x2="100" y2="380" stroke="#f0f0f0" stroke-dasharray="4"/>
    
    <!-- Slack -->
    <rect x="200" y="20" width="100" height="40" fill="#4A154B" stroke="black"/>
    <text x="250" y="45" text-anchor="middle" fill="white">Slack Server</text>
    <line x1="250" y1="60" x2="250" y2="380" stroke="#4A154B" stroke-dasharray="4"/>
    
    <!-- ngrok -->
    <rect x="350" y="20" width="100" height="40" fill="#1F1E37" stroke="black"/>
    <text x="400" y="45" text-anchor="middle" fill="white">ngrok Tunnel</text>
    <line x1="400" y1="60" x2="400" y2="380" stroke="#1F1E37" stroke-dasharray="4"/>
    
    <!-- Flask -->
    <rect x="500" y="20" width="100" height="40" fill="#000000" stroke="black"/>
    <text x="550" y="45" text-anchor="middle" fill="white">Flask App</text>
    <line x1="550" y1="60" x2="550" y2="380" stroke="#000000" stroke-dasharray="4"/>
    
    <!-- ML Model -->
    <rect x="650" y="20" width="100" height="40" fill="#3776AB" stroke="black"/>
    <text x="700" y="45" text-anchor="middle" fill="white">ML Model</text>
    <line x1="700" y1="60" x2="700" y2="380" stroke="#3776AB" stroke-dasharray="4"/>
  </g>
  
  <!-- Arrows and Labels -->
  <g font-family="Arial" font-size="12">
    <!-- User to Slack -->
    <line x1="100" y1="100" x2="250" y2="100" stroke="black" marker-end="url(#arrowhead)"/>
    <text x="120" y="90">Types message</text>
    
    <!-- Slack to ngrok -->
    <line x1="250" y1="140" x2="400" y2="140" stroke="black" marker-end="url(#arrowhead)"/>
    <text x="270" y="130">POST webhook</text>
    
    <!-- ngrok to Flask -->
    <line x1="400" y1="180" x2="550" y2="180" stroke="black" marker-end="url(#arrowhead)"/>
    <text x="420" y="170">Forward to localhost</text>
    
    <!-- Flask to Model -->
    <line x1="550" y1="220" x2="700" y2="220" stroke="black" marker-end="url(#arrowhead)"/>
    <text x="570" y="210">Classification request</text>
    
    <!-- Model to Flask -->
    <line x1="700" y1="260" x2="550" y2="260" stroke="black" marker-end="url(#arrowhead)"/>
    <text x="570" y="250">Return result</text>
    
    <!-- Flask to ngrok -->
    <line x1="550" y1="300" x2="400" y2="300" stroke="black" marker-end="url(#arrowhead)"/>
    <text x="420" y="290">Send response</text>
    
    <!-- ngrok to Slack -->
    <line x1="400" y1="340" x2="250" y2="340" stroke="black" marker-end="url(#arrowhead)"/>
    <text x="270" y="330">Forward response</text>
    
    <!-- Slack to User -->
    <line x1="250" y1="380" x2="100" y2="380" stroke="black" marker-end="url(#arrowhead)"/>
    <text x="120" y="370">Show result</text>
  </g>
  
  <!-- Arrow Marker -->
  <defs>
    <marker id="arrowhead" markerWidth="10" markerHeight="7" refX="9" refY="3.5" orient="auto">
      <polygon points="0 0, 10 3.5, 0 7" fill="black"/>
    </marker>
  </defs>
</svg>
